# xmcd CD database file
#
# Track frame offsets:
#	150
#	19223
#	35484
#	51090
#	67786
#	86235
#	100042
#	114796
#	129978
#	145945
#	161872
#
# Disc length: 2338 seconds
#
# Revision: 6
# Processed by: cddbd v1.5.1PL0 Copyright (c) Steve Scherf et al.
# Submitted via: CDex 1.40Release
#
DISCID=8b09200b
DTITLE=Keith Whitley - Greatest Hits
DYEAR=1900
DGENRE=Country
TTITLE0=Don't Close Your Eyes
TTITLE1=I'm No Stranger To The Rain
TTITLE2=Miami, My Amy
TTITLE3=When You Say Nothing At All
TTITLE4=It Ain't Nothin'
TTITLE5=I'm Over You
TTITLE6=I Wonder Do You Think Of Me
TTITLE7=Ten Feet Away
TTITLE8=Talk To Me Texas
TTITLE9='Til A Tear Becomes A Rose
TTITLE10=Tell Lorrie I Love Her
EXTD=ID3G: 2
EXTT0=
EXTT1=
EXTT2=
EXTT3=
EXTT4=
EXTT5=
EXTT6=
EXTT7=
EXTT8=
EXTT9=
EXTT10=
PLAYORDER=
